{"title":"The.Simpsons.S27E12.720p.MICRO-REPACK","uid":13260467,"size":110697919,"categoryP":"video","categoryS":"hd___tv_shows","magnet":"?xt=urn:btih:0b2dabc59c819685df0d492181f4699a8a41b60c&amp;dn=The.Simpsons.S27E12.720p.MICRO-REPACK&amp;tr=udp%3A%2F%2Ftracker.leechers-paradise.org%3A6969&amp;tr=udp%3A%2F%2Fzer0day.ch%3A1337&amp;tr=udp%3A%2F%2Fopen.demonii.com%3A1337&amp;tr=udp%3A%2F%2Ftracker.coppersurfer.tk%3A6969&amp;tr=udp%3A%2F%2Fexodus.desync.com%3A6969","seeders":0,"leechers":0,"uploader":"mr98321","files":2,"time":1453263600,"description":"MICRO-REPACK\r\n\r\n\r\nGeneral\r\nFormat                                   : MPEG-4\r\nFormat profile                           : Base Media / Version 2\r\nCodec ID                                 : mp42 (isom/iso2/avc1/mp41)\r\nFile size                                : 106 MiB\r\nDuration                                 : 21mn 17s\r\nOverall bit rate                         : 693 Kbps\r\n\r\n\r\nVideo\r\nID                                       : 1\r\nFormat                                   : AVC\r\nFormat/Info                              : Advanced Video Codec\r\nFormat profile                           :   \r\nFormat settings, CABAC                   : Yes\r\nFormat settings, ReFrames                : 16 frames\r\nCodec ID                                 : avc1\r\nCodec ID/Info                            : Advanced Video Coding\r\nDuration                                 : 21mn 17s\r\nBit rate                                 : 529 Kbps\r\nWidth                                    : 1 280 pixels\r\nHeight                                   : 718 pixels\r\nDisplay aspect ratio                     : 16:9\r\nFrame rate mode                          : Variable\r\nFrame rate                               : 23.976 (24000/1001) fps\r\nMinimum frame rate                       : 23.974 fps\r\nMaximum frame rate                       : 23.981 fps\r\nColor space                              : YUV\r\nChroma subsampling                       : 4:2:0\r\nBit depth                                : 8 bits\r\nScan type                                : Progressive\r\nBits/(Pixel*Frame)                       : 0.024\r\nStream size                              : 80.5 MiB (76%)\r\n\r\n\r\nAudio\r\nID                                       : 2\r\nFormat                                   : AC-3\r\nFormat/Info                              : Audio Coding 3\r\nMode extension                           : CM (complete main)\r\nFormat settings, Endianness              : Big\r\nCodec ID                                 : ac-3\r\nDuration                                 : 21mn 17s\r\nBit rate mode                            : Constant\r\nBit rate                                 : 160 Kbps\r\nChannel(s)                               : 2 channels\r\nChannel positions                        : Front: L R\r\nSampling rate                            : 48.0 KHz\r\nFrame rate                               : 31.250 fps (1536 spf)\r\nBit depth                                : 16 bits\r\nCompression mode                         : Lossy\r\nStream size                              : 24.4 MiB (23%)\r\nTitle                                    : Stereo / Stereo","torrent":{"xt":"urn:btih:0b2dabc59c819685df0d492181f4699a8a41b60c","amp;dn":"The.Simpsons.S27E12.720p.MICRO-REPACK","amp;tr":["udp%3A%2F%2Ftracker.leechers-paradise.org%3A6969","udp%3A%2F%2Fzer0day.ch%3A1337","udp%3A%2F%2Fopen.demonii.com%3A1337","udp%3A%2F%2Ftracker.coppersurfer.tk%3A6969","udp%3A%2F%2Fexodus.desync.com%3A6969"],"infoHash":"0b2dabc59c819685df0d492181f4699a8a41b60c","infoHashBuffer":{"type":"Buffer","data":[11,45,171,197,156,129,150,133,223,13,73,33,129,244,105,154,138,65,182,12]},"announce":[],"urlList":[]}}